PathFileType	4	(x/y/z)	S10_P20_T16
DataRate	CameraRate	NumFrames	NumMarkers	Units	OrigDataRate	OrigDataStartFrame	OrigNumFrames
240	240	4	51	mm	240	299	398
Frame#	Time	Sternum			R.Acromium			L.Acromium			Top.Head			R.ASIS			L.ASIS			R.PSIS			L.PSIS			R.Great.Tro			L.Great.Tro			R.Iliac.Crest			L.Iliac.Crest			V.Sacral			R.Thigh.Upper.Post			R.Thigh.Lower.Ant			R.Thigh.Lower.Post			R.Thigh.Upper.Ant			R.Knee.Lat			R.Knee.Med			R.Shank.Upper.Post			R.Shank.Lower.Ant			R.Shank.Lower.Post			R.Shank.Upper.Ant			R.Ankle.Lat			R.Ankle.Med			R.Heel.Upper			R.Heel.Med			R.Heel.Lat			R.Toe.Lat			R.Toe.Med			R.Toe.Tip			L.Thigh.Upper.Post			L.Thigh.Lower.Ant			L.Thigh.Lower.Post			L.Thigh.Upper.Ant			L.Knee.Lat			L.Knee.Med			L.Shank.Upper.Post			L.Shank.Lower.Ant			L.Shank.Lower.Post			L.Shank.Upper.Ant			L.Ankle.Lat			L.Ankle.Med			L.Heel.Upper			L.Heel.Med			L.Heel.Lat			L.Toe.Lat			L.Toe.Med			L.Toe.Tip			Cervical.Spine			Back			
		X1	Y1	Z1	X2	Y2	Z2	X3	Y3	Z3	X4	Y4	Z4	X5	Y5	Z5	X6	Y6	Z6	X7	Y7	Z7	X8	Y8	Z8	X9	Y9	Z9	X10	Y10	Z10	X11	Y11	Z11	X12	Y12	Z12	X13	Y13	Z13	X14	Y14	Z14	X15	Y15	Z15	X16	Y16	Z16	X17	Y17	Z17	X18	Y18	Z18	X19	Y19	Z19	X20	Y20	Z20	X21	Y21	Z21	X22	Y22	Z22	X23	Y23	Z23	X24	Y24	Z24	X25	Y25	Z25	X26	Y26	Z26	X27	Y27	Z27	X28	Y28	Z28	X29	Y29	Z29	X30	Y30	Z30	X31	Y31	Z31	X32	Y32	Z32	X33	Y33	Z33	X34	Y34	Z34	X35	Y35	Z35	X36	Y36	Z36	X37	Y37	Z37	X38	Y38	Z38	X39	Y39	Z39	X40	Y40	Z40	X41	Y41	Z41	X42	Y42	Z42	X43	Y43	Z43	X44	Y44	Z44	X45	Y45	Z45	X46	Y46	Z46	X47	Y47	Z47	X48	Y48	Z48	X49	Y49	Z49	X50	Y50	Z50	X51	Y51	Z51	

299	1.2417	326.54	1291.6	269.75	187.73	1449.5	409.4	213.17	1477.9	112.95	194.91	1768.3	268.26	268.94	1021.3	373.35	284.58	1036.8	141.99	75.007	1043.2	273.92	86.176	1050.9	193.13	194.53	943.39	441.78	224.7	971.96	80.456	169.87	1099.4	412.09	218.94	1109.1	110.67	58.197	1013.2	233.79	265.56	741.21	452.93	341.95	680.04	423.26	283.97	653.5	450.02	323.2	769.28	421.05	301.08	527.26	416.82	320.43	526.86	286.23	122.48	385.55	400.26	138.03	295.03	396.53	79.334	325.31	395.31	187.29	354.43	404.59	32.325	226.1	377.23	55.866	223.49	300.68	-34.464	223.09	315.31	-41.56	194.84	288.48	-53.136	205.35	348.78	57.765	89.458	423.38	100.36	69.454	324.24	148.45	51.6	375.48	184.11	691.15	96.735	253.91	610.69	126.85	182.6	598.15	122.75	262.37	698.41	101.61	216.22	512.87	136.32	220.77	515.13	264.8	121.11	311.7	135.1	170.65	214.64	155.52	110.79	235.44	145.32	181.52	290.19	144.68	115.9	112.38	158.72	126.95	122.78	246.28	41.059	83.554	201.61	49.381	50.149	233.93	47.626	54.332	169.38	225.26	41.77	135.95	250.19	43.687	246	306.89	52.041	199.41	127.36	1509.8	263.57	45.123	1300.9	243.44
300	1.2458	331.46	1292.5	269.97	192.16	1450	409.49	218.54	1478.8	113.15	200	1768.9	268.59	273.85	1022.2	373.12	289.28	1037.1	141.78	79.824	1044	274.08	91.036	1051.5	193.33	199.72	944.44	441.93	229	972.14	80.457	175.03	1100.4	411.95	223.86	1109.6	110.59	62.974	1013.9	234	272.31	742.63	453	348.86	681.92	422.71	291.35	655.05	450.12	329.31	770.99	420.52	308.64	528.62	416.64	327.53	528.68	286.15	131.95	383.88	400.18	149.09	293.68	396.69	89.891	322.9	395.3	197.29	353.91	404.69	44.532	222.72	377.36	68.524	220.31	300.95	-22.392	217.57	315.25	-28.559	188.9	288.63	-40.546	199.46	348.83	73.636	87.486	424.49	117.1	68.022	325.55	165.52	51.949	377.05	186.47	691.79	96.854	255.74	610.76	126.7	184.31	598.78	122.81	264.77	698.47	101.54	217.38	513.15	136.11	222.39	515.29	264.56	121.76	312.17	135.08	171.1	214.98	155.46	111.3	235.94	145.34	182.1	290.52	144.58	116.16	112.71	158.8	127.13	123.15	246.3	41.321	84.064	201.81	49.576	50.587	234.08	47.782	54.884	169.51	225.32	41.774	135.96	250.28	43.633	246.03	307.02	51.845	199.4	132.3	1510.4	263.48	50.172	1301.5	242.91
301	1.25	336.39	1293.3	270.17	196.62	1450.5	409.59	223.89	1479.7	113.34	205.06	1769.5	268.93	278.78	1023	372.9	293.95	1037.3	141.58	84.634	1044.7	274.26	95.876	1052	193.55	204.92	945.46	442.08	233.29	972.3	80.468	180.21	1101.2	411.82	228.77	1110	110.54	67.738	1014.6	234.24	279.02	744.03	453.06	355.72	683.74	422.12	298.67	656.57	450.21	335.4	772.64	419.98	316.07	529.95	416.44	334.47	530.45	286.08	141.42	382.11	400.12	160.19	292.27	396.87	100.5	320.38	395.31	207.28	353.34	404.78	56.886	219.21	377.53	81.309	217.04	301.26	-10.111	211.91	315.27	-15.343	182.85	288.86	-27.72	193.45	348.97	89.652	85.473	425.58	133.95	66.615	326.81	182.66	52.314	378.53	188.84	692.42	96.966	257.59	610.84	126.55	186.06	599.41	122.85	267.18	698.53	101.47	218.56	513.43	135.89	223.99	515.44	264.34	122.43	312.64	135.06	171.55	215.33	155.41	111.83	236.45	145.36	182.68	290.86	144.49	116.44	113.06	158.9	127.33	123.52	246.32	41.605	84.606	202.01	49.793	51.058	234.23	47.946	55.468	169.65	225.39	41.78	135.98	250.36	43.582	246.05	307.15	51.649	199.38	137.24	1510.9	263.41	55.222	1302	242.41
302	1.2542	341.32	1294.1	270.33	201.12	1450.9	409.7	229.22	1480.5	113.54	210.09	1770.1	269.29	283.71	1023.7	372.69	298.61	1037.5	141.4	89.44	1045.4	274.46	100.7	1052.6	193.78	210.12	946.43	442.24	237.56	972.43	80.488	185.4	1102.1	411.72	233.69	1110.4	110.5	72.488	1015.3	234.51	285.67	745.38	453.11	362.5	685.49	421.52	305.93	658.04	450.27	341.48	774.24	419.42	323.38	531.23	416.21	341.23	532.15	286.01	150.9	380.23	400.08	171.35	290.8	397.05	111.18	317.75	395.34	217.28	352.7	404.86	69.391	215.59	377.74	94.218	213.68	301.6	2.3854	206.14	315.38	-1.9074	176.73	289.17	-14.656	187.31	349.19	105.81	83.426	426.66	150.88	65.242	328.03	199.85	52.702	379.94	191.23	693.04	97.071	259.47	610.93	126.41	187.83	600.02	122.89	269.6	698.59	101.42	219.77	513.71	135.69	225.59	515.58	264.12	123.12	313.12	135.04	172.01	215.69	155.36	112.37	236.97	145.38	183.28	291.21	144.39	116.72	113.43	158.99	127.56	123.9	246.35	41.908	85.181	202.21	50.03	51.561	234.39	48.117	56.082	169.78	225.46	41.788	136	250.44	43.535	246.06	307.28	51.453	199.36	142.2	1511.4	263.35	60.274	1302.6	241.95
